REM DIRINDEX 1\2,1\3
REM DIRNAME cjc039,folder01,folder02
TITLE ""
FILE "1601-1620.mp3" MP3
  TRACK 01 AUDIO
    TITLE "0:"
    INDEX 01 00:00:00
  TRACK 02 AUDIO
    TITLE "2:cjc039_2201"
    INDEX 01 00:00:25
  TRACK 03 AUDIO
    TITLE "0:"
    INDEX 01 00:01:44
  TRACK 04 AUDIO
    TITLE "3:cjc039_2202"
    INDEX 01 00:02:22
  TRACK 05 AUDIO
    TITLE "0:"
    INDEX 01 00:06:06
  TRACK 06 AUDIO
    TITLE "2:cjc039_2203"
    INDEX 01 00:07:54
  TRACK 07 AUDIO
    TITLE "0:"
    INDEX 01 00:09:42
  TRACK 08 AUDIO
    TITLE "3:cjc039_2204"
    INDEX 01 00:10:14
  TRACK 09 AUDIO
    TITLE "0:"
    INDEX 01 00:15:62
  TRACK 10 AUDIO
    TITLE "2:cjc039_2205"
    INDEX 01 00:17:33
  TRACK 11 AUDIO
    TITLE "0:"
    INDEX 01 00:18:50
  TRACK 12 AUDIO
    TITLE "3:cjc039_2206"
    INDEX 01 00:19:26
  TRACK 13 AUDIO
    TITLE "0:"
    INDEX 01 00:23:08
  TRACK 14 AUDIO
    TITLE "2:cjc039_2207"
    INDEX 01 00:24:57
  TRACK 15 AUDIO
    TITLE "0:"
    INDEX 01 00:26:32
  TRACK 16 AUDIO
    TITLE "3:cjc039_2208"
    INDEX 01 00:27:04
  TRACK 17 AUDIO
    TITLE "0:"
    INDEX 01 00:31:65
  TRACK 18 AUDIO
    TITLE "2:cjc039_2209"
    INDEX 01 00:33:42
  TRACK 19 AUDIO
    TITLE "0:"
    INDEX 01 00:34:43
  TRACK 20 AUDIO
    TITLE "3:cjc039_2210"
    INDEX 01 00:35:21
  TRACK 21 AUDIO
    TITLE "0:"
    INDEX 01 00:37:65
  TRACK 22 AUDIO
    TITLE "2:cjc039_2211"
    INDEX 01 00:39:43
  TRACK 23 AUDIO
    TITLE "0:"
    INDEX 01 00:41:02
  TRACK 24 AUDIO
    TITLE "3:cjc039_2212"
    INDEX 01 00:41:55
  TRACK 25 AUDIO
    TITLE "0:"
    INDEX 01 00:45:47
  TRACK 26 AUDIO
    TITLE "2:cjc039_2213"
    INDEX 01 00:47:17
  TRACK 27 AUDIO
    TITLE "0:"
    INDEX 01 00:50:15
  TRACK 28 AUDIO
    TITLE "3:cjc039_2214"
    INDEX 01 00:50:66
  TRACK 29 AUDIO
    TITLE "0:"
    INDEX 01 00:54:54
  TRACK 30 AUDIO
    TITLE "2:cjc039_2215"
    INDEX 01 00:56:29
  TRACK 31 AUDIO
    TITLE "0:"
    INDEX 01 00:57:66
  TRACK 32 AUDIO
    TITLE "3:cjc039_2216"
    INDEX 01 00:58:40
  TRACK 33 AUDIO
    TITLE "0:"
    INDEX 01 01:03:31
  TRACK 34 AUDIO
    TITLE "2:cjc039_2217"
    INDEX 01 01:05:07
  TRACK 35 AUDIO
    TITLE "0:"
    INDEX 01 01:06:20
  TRACK 36 AUDIO
    TITLE "3:cjc039_2218"
    INDEX 01 01:06:69
  TRACK 37 AUDIO
    TITLE "0:"
    INDEX 01 01:10:71
  TRACK 38 AUDIO
    TITLE "2:cjc039_2219"
    INDEX 01 01:12:44
  TRACK 39 AUDIO
    TITLE "0:"
    INDEX 01 01:13:71
  TRACK 40 AUDIO
    TITLE "3:cjc039_2220"
    INDEX 01 01:14:47
  TRACK 41 AUDIO
    TITLE "0:"
    INDEX 01 01:18:58
  TRACK 42 AUDIO
    TITLE "2:cjc039_2221"
    INDEX 01 01:20:32
  TRACK 43 AUDIO
    TITLE "0:"
    INDEX 01 01:21:29
  TRACK 44 AUDIO
    TITLE "3:cjc039_2222"
    INDEX 01 01:22:05
  TRACK 45 AUDIO
    TITLE "0:"
    INDEX 01 01:25:51
  TRACK 46 AUDIO
    TITLE "2:cjc039_2223"
    INDEX 01 01:27:28
  TRACK 47 AUDIO
    TITLE "0:"
    INDEX 01 01:28:72
  TRACK 48 AUDIO
    TITLE "3:cjc039_2224"
    INDEX 01 01:29:48
  TRACK 49 AUDIO
    TITLE "0:"
    INDEX 01 01:34:59
  TRACK 50 AUDIO
    TITLE "2:cjc039_2225"
    INDEX 01 01:36:35
  TRACK 51 AUDIO
    TITLE "0:"
    INDEX 01 01:37:30
  TRACK 52 AUDIO
    TITLE "3:cjc039_2226"
    INDEX 01 01:38:08
  TRACK 53 AUDIO
    TITLE "0:"
    INDEX 01 01:41:54
  TRACK 54 AUDIO
    TITLE "2:cjc039_2227"
    INDEX 01 01:43:29
  TRACK 55 AUDIO
    TITLE "0:"
    INDEX 01 01:44:44
  TRACK 56 AUDIO
    TITLE "3:cjc039_2228"
    INDEX 01 01:45:24
  TRACK 57 AUDIO
    TITLE "0:"
    INDEX 01 01:49:20
  TRACK 58 AUDIO
    TITLE "2:cjc039_2229"
    INDEX 01 01:50:66
  TRACK 59 AUDIO
    TITLE "0:"
    INDEX 01 01:52:02
  TRACK 60 AUDIO
    TITLE "3:cjc039_2230"
    INDEX 01 01:52:57
  TRACK 61 AUDIO
    TITLE "0:"
    INDEX 01 01:56:18
  TRACK 62 AUDIO
    TITLE "2:cjc039_2231"
    INDEX 01 01:57:72
  TRACK 63 AUDIO
    TITLE "0:"
    INDEX 01 01:59:12
  TRACK 64 AUDIO
    TITLE "3:cjc039_2232"
    INDEX 01 01:59:61
  TRACK 65 AUDIO
    TITLE "0:"
    INDEX 01 02:03:65
  TRACK 66 AUDIO
    TITLE "2:cjc039_2233"
    INDEX 01 02:05:46
  TRACK 67 AUDIO
    TITLE "0:"
    INDEX 01 02:06:71
  TRACK 68 AUDIO
    TITLE "3:cjc039_2234"
    INDEX 01 02:07:47
  TRACK 69 AUDIO
    TITLE "0:"
    INDEX 01 02:11:61
  TRACK 70 AUDIO
    TITLE "2:cjc039_2235"
    INDEX 01 02:13:36
  TRACK 71 AUDIO
    TITLE "0:"
    INDEX 01 02:14:65
  TRACK 72 AUDIO
    TITLE "3:cjc039_2236"
    INDEX 01 02:15:37
  TRACK 73 AUDIO
    TITLE "0:"
    INDEX 01 02:19:11
  TRACK 74 AUDIO
    TITLE "2:cjc039_2237"
    INDEX 01 02:20:63
  TRACK 75 AUDIO
    TITLE "0:"
    INDEX 01 02:22:00
  TRACK 76 AUDIO
    TITLE "3:cjc039_2238"
    INDEX 01 02:22:53
  TRACK 77 AUDIO
    TITLE "0:"
    INDEX 01 02:27:05
  TRACK 78 AUDIO
    TITLE "2:cjc039_2239"
    INDEX 01 02:28:55
  TRACK 79 AUDIO
    TITLE "0:"
    INDEX 01 02:29:62
  TRACK 80 AUDIO
    TITLE "3:cjc039_2240"
    INDEX 01 02:30:32
  TRACK 81 AUDIO
    TITLE "0:"
    INDEX 01 02:34:24
